Coordinates
version=1
nRows=32
nColumns=12
inDegrees=yes

Units are S.I. units (second, meters, Newtons, ...)
Angles are in degrees

endheader
time	SC_y	SC_z	SC_x	AC_y	AC_z	AC_x	GH_y	GH_z	GH_yy	EL_x	PS_y
       0.0              -26.81          30.68           78.6          57.77          -5.97          -4.22         -136.5          10.37          77.74          108.0          114.5
 0.0006752              -26.81          30.68          78.59          57.77         -5.968         -4.218         -136.5          10.38          77.72          108.0          114.5
   0.00135              -26.82          30.67          78.59          57.78         -5.967         -4.216         -136.5          10.39          77.69          108.0          114.5
  0.002026              -26.82          30.67          78.59          57.78         -5.966         -4.214         -136.5           10.4          77.66          108.0          114.5
  0.002701              -26.83          30.66          78.58          57.78         -5.965         -4.211         -136.4          10.41          77.62          107.9          114.5
  0.003376              -26.83          30.66          78.58          57.78         -5.964         -4.209         -136.4          10.43          77.59          107.9          114.5
  0.004051              -26.84          30.65          78.57          57.78         -5.962         -4.206         -136.4          10.44          77.55          107.9          114.5
  0.004726              -26.84          30.64          78.57          57.79         -5.961         -4.204         -136.4          10.46          77.51          107.9          114.5
  0.005401              -26.85          30.64          78.56          57.79         -5.959         -4.201         -136.4          10.47          77.46          107.9          114.5
  0.006077              -26.86          30.63          78.56          57.79         -5.957         -4.198         -136.4          10.49          77.41          107.9          114.4
  0.006752              -26.87          30.62          78.55           57.8         -5.956         -4.194         -136.3          10.51          77.36          107.8          114.4
  0.007427              -26.87          30.61          78.54           57.8         -5.954         -4.191         -136.3          10.53          77.31          107.8          114.4
  0.008102              -26.88           30.6          78.54           57.8         -5.952         -4.187         -136.3          10.55          77.25          107.8          114.4
  0.008777              -26.89          30.59          78.53          57.81         -5.949         -4.183         -136.3          10.57          77.19          107.8          114.4
  0.009452               -26.9          30.58          78.52          57.81         -5.947         -4.178         -136.2           10.6          77.12          107.7          114.4
   0.01013              -26.91          30.57          78.51          57.82         -5.944         -4.173         -136.2          10.62          77.04          107.7          114.4
    0.0108              -26.92          30.56           78.5          57.82         -5.941         -4.168         -136.2          10.65          76.96          107.7          114.4
   0.01148              -26.94          30.55          78.49          57.83         -5.938         -4.162         -136.2          10.69          76.87          107.7          114.3
   0.01215              -26.95          30.53          78.48          57.83         -5.934         -4.155         -136.1          10.72          76.78          107.6          114.3
   0.01283              -26.96          30.51          78.46          57.84          -5.93         -4.148         -136.1          10.76          76.67          107.6          114.3
    0.0135              -26.98           30.5          78.45          57.85         -5.926         -4.141         -136.0           10.8          76.56          107.5          114.3
   0.01418               -27.0          30.48          78.43          57.85         -5.922         -4.132         -136.0          10.85          76.43          107.5          114.3
   0.01485              -27.02          30.45          78.42          57.86         -5.916         -4.123         -135.9           10.9          76.29          107.4          114.2
   0.01553              -27.04          30.43           78.4          57.87         -5.911         -4.113         -135.9          10.96          76.13          107.4          114.2
    0.0162              -27.07           30.4          78.38          57.88         -5.905         -4.101         -135.8          11.02          75.96          107.3          114.2
   0.01688              -27.09          30.37          78.35           57.9         -5.897         -4.088         -135.7          11.09          75.76          107.2          114.1
   0.01755              -27.12          30.34          78.32          57.91          -5.89         -4.074         -135.7          11.17          75.55          107.1          114.1
   0.01823              -27.16           30.3          78.29          57.92         -5.881         -4.058         -135.6          11.26           75.3          107.0          114.0
    0.0189               -27.2          30.25          78.26          57.94         -5.871          -4.04         -135.5          11.36          75.03          106.9          114.0
   0.01958              -27.24          30.21          78.22          57.96         -5.859         -4.019         -135.3          11.47          74.71          106.8          113.9
   0.02026              -27.29          30.15          78.18          57.98         -5.846         -3.995         -135.2           11.6          74.36          106.7          113.9
   0.02093              -27.35          30.08          78.12          58.01         -5.831         -3.968         -135.1          11.75          73.95          106.5          113.8
